<?xml version="1.0" standalone="no"?>
<!DOCTYPE svg PUBLIC "-//W3C//DTD SVG 20010904//EN"
 "http://www.w3.org/TR/2001/REC-SVG-20010904/DTD/svg10.dtd">
<svg version="1.0" xmlns="http://www.w3.org/2000/svg"
 width="16.000000pt" height="16.000000pt" viewBox="0 0 16.000000 16.000000"
 preserveAspectRatio="xMidYMid meet">
<metadata>
Created by potrace 1.11, written by Peter Selinger 2001-2013
</metadata>
<g transform="translate(0.000000,16.000000) scale(0.004000,-0.004000)"
fill="#000000" stroke="none">
<path d="M1250 3643 c0 -7 -6 -13 -14 -13 -18 0 -99 -81 -160 -160 -53 -69
-106 -163 -126 -225 -12 -40 -28 -79 -57 -145 -9 -19 -17 -46 -19 -60 -5 -47
-34 -171 -44 -190 -5 -10 -10 -41 -10 -69 0 -27 -5 -72 -11 -99 -20 -94 -15
-259 11 -332 4 -14 11 -53 14 -87 6 -71 27 -127 58 -160 29 -31 40 -29 33 5
l-5 27 12 -25 c7 -14 18 -31 25 -38 17 -17 16 -37 -1 -51 -8 -6 -19 -24 -25
-40 -10 -22 -25 -32 -79 -49 -61 -20 -72 -28 -127 -95 -33 -39 -67 -77 -76
-84 -8 -6 -28 -30 -43 -52 -28 -40 -28 -40 -12 -87 9 -26 16 -48 16 -48 0 -1
-18 -2 -41 -4 -44 -3 -62 -15 -73 -49 -4 -14 -2 -23 9 -27 23 -8 18 -29 -5
-23 -22 6 -120 -26 -130 -42 -9 -15 -118 -29 -185 -24 -33 2 -71 5 -85 6 -14
0 -30 8 -37 16 -6 9 -15 13 -19 8 -4 -4 -2 -13 4 -19 16 -16 15 -28 -3 -28 -8
0 -15 5 -15 11 0 5 -5 7 -10 4 -6 -4 -8 -11 -5 -16 4 -5 1 -9 -4 -9 -8 0 -11
-210 -11 -685 l0 -685 1229 0 c1080 0 1230 2 1235 15 7 19 32 19 40 0 7 -19
59 -20 75 -2 6 8 11 31 11 53 0 68 1 74 8 74 4 0 8 23 10 51 1 28 5 56 9 62 8
12 11 24 17 67 2 14 5 25 6 25 1 0 3 20 5 45 3 37 13 94 20 120 2 10 16 85 20
118 12 79 15 100 24 147 6 28 13 70 16 95 4 24 9 48 11 52 3 4 7 24 9 45 9 70
17 118 23 128 4 6 8 21 10 35 1 14 13 45 27 70 15 30 21 51 15 60 -7 11 -12
11 -23 2 -23 -19 -64 2 -80 40 -10 22 -11 37 -4 46 5 6 6 12 1 13 -5 0 -17 2
-27 4 -13 2 -17 -1 -13 -11 6 -16 -9 -19 -19 -4 -3 5 -12 7 -20 5 -8 -3 -21
-7 -29 -9 -11 -4 -11 -12 0 -57 8 -30 14 -77 14 -106 0 -42 -4 -53 -19 -58
-27 -8 -43 1 -70 40 -15 23 -32 35 -46 35 -39 0 -56 10 -46 28 8 16 21 77 21
95 0 4 6 20 14 36 13 25 13 30 -2 46 -9 10 -12 15 -5 11 6 -3 14 -2 18 4 3 5
0 10 -7 10 -9 0 -10 2 -1 8 6 4 13 16 15 27 1 11 10 26 18 33 8 8 9 11 3 7 -7
-3 -13 0 -13 7 0 11 -2 10 -9 0 -6 -11 -10 -10 -15 4 -6 15 -1 16 35 11 33 -4
39 -3 35 10 -3 8 -6 16 -6 18 0 2 -10 1 -21 -2 -19 -5 -20 -3 -14 18 8 23 7
23 -24 -4 -18 -15 -38 -27 -44 -27 -7 1 3 14 21 29 23 20 29 30 20 34 -9 4
-10 6 0 6 6 1 12 10 12 20 0 11 -6 22 -12 24 -10 4 -10 6 0 6 6 1 12 9 12 19
0 13 -2 14 -9 3 -6 -9 -11 -10 -15 -2 -4 6 -1 18 7 26 13 12 12 22 -6 77 -12
35 -23 55 -25 45 -2 -9 -8 -17 -14 -17 -6 0 -4 -8 6 -19 18 -20 13 -46 -11
-55 -8 -4 -13 -13 -9 -21 3 -8 1 -15 -4 -15 -5 0 -12 -9 -15 -20 -3 -11 -13
-20 -21 -20 -8 0 -14 -6 -14 -14 0 -8 -6 -21 -13 -28 -8 -7 -14 -20 -14 -29 0
-23 -64 -98 -90 -105 -14 -4 -23 -15 -25 -32 -2 -16 -9 -27 -18 -27 -8 0 -18
-4 -22 -9 -3 -5 -6 2 -6 15 0 13 -2 33 -5 44 -2 11 1 23 7 27 8 5 7 8 -2 8 -7
0 -10 6 -7 13 4 6 0 4 -8 -6 -10 -12 -17 -14 -22 -8 -3 6 -1 11 5 11 6 0 8 4
5 10 -3 5 6 12 20 16 14 3 25 10 25 16 0 5 4 7 9 3 5 -3 12 -1 16 5 3 6 -4 10
-16 10 -27 0 -17 13 11 15 11 1 27 10 36 21 8 10 13 14 10 7 -4 -6 8 -25 25
-42 27 -27 30 -28 24 -8 -4 12 -12 27 -19 32 -14 13 -12 91 3 87 12 -2 12 -2
15 51 1 21 6 42 12 45 15 11 33 49 27 56 -4 3 -15 6 -25 6 -10 0 -18 5 -18 11
0 6 7 9 15 5 8 -3 15 -1 15 4 0 18 20 10 21 -7 2 -28 17 27 18 64 1 35 -32 83
-56 83 -8 0 -12 -4 -9 -8 26 -42 10 -112 -40 -177 -20 -27 -24 -39 -16 -47 17
-17 15 -28 -3 -22 -8 4 -15 1 -15 -5 0 -6 -6 -8 -13 -5 -8 3 -20 -2 -27 -11
-7 -8 -18 -15 -24 -15 -6 0 -18 -10 -26 -22 -8 -11 -25 -30 -37 -41 -13 -11
-23 -27 -23 -34 0 -17 -16 -17 -24 0 -3 6 -4 0 -1 -15 3 -16 1 -28 -5 -28 -5
0 -10 -10 -10 -21 0 -16 -3 -19 -12 -11 -7 6 -17 11 -23 13 -5 1 -8 11 -7 23
3 17 2 18 -12 7 -9 -7 -13 -18 -9 -24 3 -5 2 -7 -4 -4 -12 8 -93 -13 -93 -24
0 -5 -9 -9 -20 -9 -11 0 -20 -4 -20 -10 0 -5 -26 -8 -60 -7 -42 1 -60 6 -60
15 0 7 5 10 10 7 6 -3 15 -3 21 1 8 5 8 9 -1 14 -8 5 4 19 36 41 27 18 55 39
62 46 7 7 17 13 22 13 14 0 60 46 60 59 0 7 3 10 8 8 12 -8 58 35 88 83 29 47
31 50 33 76 0 8 6 12 12 8 6 -3 15 0 20 7 14 23 10 30 -11 19 -16 -8 -20 -8
-20 4 0 8 4 16 10 18 6 2 6 8 0 18 -8 13 -10 13 -10 -1 0 -25 -27 -31 -33 -8
-4 14 -1 19 8 15 20 -7 26 5 12 23 -11 14 -10 15 8 1 11 -8 23 -19 27 -25 4
-5 8 -6 8 -1 0 5 7 2 17 -5 15 -13 15 -12 4 9 -6 12 -9 27 -6 32 3 6 -2 10
-11 10 -10 0 -15 3 -12 6 3 3 -6 17 -20 31 -23 23 -24 26 -8 35 9 5 13 14 9
21 -4 7 0 6 10 -2 15 -12 17 -11 17 8 0 11 5 21 10 21 6 0 10 -5 10 -11 0 -5
5 -7 10 -4 6 4 8 11 5 16 -4 5 -1 9 4 9 6 0 11 -5 11 -11 0 -5 5 -7 11 -4 6 4
8 13 5 20 -2 7 4 15 15 18 10 3 19 11 18 19 0 10 -2 10 -6 0 -7 -17 -23 -5
-23 19 0 10 -5 19 -11 19 -5 0 -8 4 -5 9 9 14 49 0 69 -23 17 -20 24 -38 29
-86 l3 -24 34 30 c29 26 34 38 40 97 8 74 5 83 -17 64 -13 -10 -15 -9 -9 5 3
9 1 19 -6 22 -9 3 -8 5 1 5 7 1 10 6 7 11 -3 6 1 10 10 10 9 0 13 5 10 11 -4
6 -10 7 -14 4 -3 -4 -11 10 -17 32 -7 21 -16 37 -22 36 -5 -1 -8 6 -5 16 3 11
-1 30 -8 42 -7 13 -12 27 -11 32 1 4 -2 7 -8 7 -5 0 -7 6 -4 14 3 8 0 17 -5
21 -6 3 -9 10 -6 15 3 5 1 20 -5 34 -7 20 -6 26 4 26 10 0 12 -7 9 -22 -3 -13
-2 -20 2 -15 5 4 10 16 12 27 3 20 -13 25 -59 21 -10 -1 -18 3 -18 9 0 6 -4 8
-10 5 -13 -8 -13 1 2 28 13 25 17 66 7 73 -4 2 -5 13 -2 24 4 16 11 19 27 14
19 -6 19 -5 -4 14 l-25 21 -9 -42 c-11 -50 -7 -43 -31 -51 -15 -4 -21 -1 -22
12 0 9 -4 28 -8 42 -4 14 -7 34 -7 45 1 18 0 19 -12 3 -7 -9 -17 -13 -24 -9
-9 5 -5 11 11 18 17 8 28 8 35 1 5 -5 12 -6 15 -1 3 5 -3 14 -13 21 -15 9 -22
8 -35 -4 -14 -15 -18 -14 -37 7 -11 13 -25 36 -30 51 -6 16 -14 25 -19 22 -6
-3 -5 -11 2 -20 15 -18 2 -18 -16 0 -8 7 -11 17 -7 20 3 4 -1 4 -10 1 -24 -9
-33 14 -12 31 17 14 17 15 2 10 -12 -3 -18 0 -18 10 0 11 -4 13 -17 5 -13 -7
-25 -4 -46 11 l-29 21 6 -24 c3 -13 3 -18 0 -11 -3 6 -14 12 -24 12 -20 0 -43
23 -33 33 3 4 1 7 -4 7 -6 0 -14 -6 -17 -12 -3 -7 -3 3 -1 22 3 19 7 66 10
104 6 71 17 107 29 88 3 -6 2 -13 -3 -16 -11 -7 -2 -46 11 -46 5 0 19 7 32 16
16 10 26 12 31 5 11 -19 25 -12 25 12 0 28 -17 47 -42 47 -10 0 -18 5 -18 10
0 7 -6 7 -18 1 -13 -7 -23 -6 -30 1 -9 9 -12 9 -12 -1 0 -8 -6 -11 -15 -7 -8
3 -15 1 -15 -4 0 -6 -4 -10 -9 -10 -5 0 -7 9 -4 20 3 11 0 20 -6 20 -6 0 -11
-12 -12 -27 -1 -26 -2 -25 -9 7 -5 19 -13 36 -19 38 -6 2 -11 8 -11 12 0 9 11
8 63 -5 26 -7 27 -6 17 20 -13 33 -13 38 0 30 6 -3 10 3 10 14 0 22 -19 30
-21 9 -1 -7 -5 1 -8 17 -4 17 -4 34 1 40 4 5 8 18 8 30 0 15 -2 17 -9 6 -7
-11 -10 -9 -15 7 -4 11 -6 24 -5 28 1 5 -2 19 -6 32 -9 26 -29 31 -21 5 3 -10
8 -40 12 -68 3 -27 12 -56 18 -64 9 -12 8 -13 -7 -8 -10 4 -22 7 -27 7 -4 0
-10 9 -13 21 -4 16 -3 18 9 8 11 -9 14 -7 14 11 0 16 -4 21 -16 16 -13 -5 -15
-1 -12 18 4 17 1 23 -9 19 -7 -3 -13 0 -13 6 0 6 -5 10 -12 9 -6 -2 -15 8 -19
22 -6 23 -7 22 -9 -10 -2 -34 -3 -34 -10 10 -4 25 -5 50 -2 55 3 6 -1 5 -8 -2
-10 -10 -11 -31 -4 -97 6 -51 6 -82 0 -76 -5 5 -11 32 -14 60 -3 38 -8 50 -18
46 -8 -3 -14 1 -14 10 0 8 4 13 9 10 5 -4 4 5 -2 18 -18 38 -31 5 -24 -65 3
-33 1 -59 -4 -59 -5 0 -9 11 -9 24 0 14 -7 32 -16 41 -11 11 -14 23 -9 43 l8
27 8 -25 c7 -22 8 -20 6 10 -3 51 -28 46 -42 -9 -9 -39 -12 -42 -25 -27 -12
15 -12 19 1 27 8 5 9 9 2 9 -6 0 -9 9 -6 20 4 16 2 19 -11 14 -9 -3 -13 -10
-10 -15 8 -14 -3 -10 -20 7 -15 14 -16 14 -16 0 0 -9 -4 -16 -9 -16 -5 0 -12
-8 -14 -17 -2 -10 -3 -7 -1 7 5 43 -12 57 -24 21 -12 -33 -23 -42 -16 -13 2 9
-7 31 -21 47 -14 17 -25 24 -25 18z m144 -84 c-3 -6 -9 -21 -13 -35 -6 -24 -6
-24 -19 -3 -9 14 -10 19 -2 14 8 -5 10 -2 6 12 -4 14 -1 19 14 20 12 1 18 -3
14 -8z m-169 -22 c6 -5 3 -7 -7 -4 -9 3 -19 1 -21 -6 -2 -7 -8 -9 -12 -5 -4 4
-1 13 6 21 8 8 16 12 19 9 3 -4 10 -11 15 -15z m410 -77 c1 -48 -10 -53 -19
-9 -9 46 -7 59 7 54 6 -3 12 -23 12 -45z m-38 18 c-3 -8 -6 -5 -6 6 -1 11 2
17 5 13 3 -3 4 -12 1 -19z m-60 -30 c-3 -7 -5 -2 -5 12 0 14 2 19 5 13 2 -7 2
-19 0 -25z m-57 -23 c0 -8 -2 -15 -4 -15 -2 0 -6 7 -10 15 -3 8 -1 15 4 15 6
0 10 -7 10 -15z m-293 -27 c-3 -7 -5 -2 -5 12 0 14 2 19 5 13 2 -7 2 -19 0
-25z m326 12 c3 -11 1 -18 -4 -14 -5 3 -9 12 -9 20 0 20 7 17 13 -6z m76 -40
c0 -10 -3 -8 -9 5 -12 27 -12 43 0 25 5 -8 9 -22 9 -30z m101 20 c0 21 16 0
24 -32 4 -17 2 -28 -4 -28 -5 0 -10 10 -10 23 0 18 -2 19 -10 7 -6 -9 -10 -10
-10 -3 0 6 -3 20 -6 30 -5 15 -4 15 5 3 9 -13 11 -13 11 0z m-43 -32 c-3 -7
-5 -2 -5 12 0 14 2 19 5 13 2 -7 2 -19 0 -25z m-2 -39 c7 -7 -10 -8 -57 -4
-39 4 -68 3 -68 -3 0 -5 -8 -9 -17 -10 -31 -1 -63 8 -63 19 0 6 13 7 34 3 19
-3 42 -2 51 4 21 11 105 6 120 -9z m-240 -9 c-3 -5 -12 -7 -20 -3 -21 7 -19
13 6 13 11 0 18 -4 14 -10z m-121 -29 c8 -12 -14 -19 -38 -13 -20 5 -20 5 0
13 26 10 32 10 38 0z m281 -11 c3 -5 1 -10 -4 -10 -6 0 -11 5 -11 10 0 6 2 10
4 10 3 0 8 -4 11 -10z m45 -11 c0 -6 -4 -7 -10 -4 -5 3 -10 11 -10 16 0 6 5 7
10 4 6 -3 10 -11 10 -16z m-390 7 c0 -3 -4 -8 -10 -11 -5 -3 -10 -1 -10 4 0 6
5 11 10 11 6 0 10 -2 10 -4z m445 -16 c3 -5 2 -10 -4 -10 -5 0 -13 5 -16 10
-3 6 -2 10 4 10 5 0 13 -4 16 -10z m-145 -7 c0 -5 -5 -15 -10 -23 -8 -12 -10
-11 -10 8 0 12 5 22 10 22 6 0 10 -3 10 -7z m44 -82 c1 -45 -1 -81 -5 -81 -10
0 -16 39 -13 95 3 74 3 79 10 73 3 -4 7 -43 8 -87z m182 53 c-3 -9 -11 -12
-18 -8 -9 5 -8 2 1 -9 24 -30 7 -28 -22 2 -25 27 -26 29 -7 34 11 3 20 1 20
-4 0 -17 20 -9 21 9 0 10 2 12 6 4 3 -7 2 -20 -1 -28z m115 9 c12 -14 12 -16
-2 -11 -9 3 -22 2 -30 -2 -13 -8 -28 4 -29 23 0 14 48 7 61 -10z m-514 -40
c-3 -10 -5 -4 -5 12 0 17 2 24 5 18 2 -7 2 -21 0 -30z m130 15 c-3 -8 -6 -5
-6 6 -1 11 2 17 5 13 3 -3 4 -12 1 -19z m210 -40 c-3 -7 -5 -2 -5 12 0 14 2
19 5 13 2 -7 2 -19 0 -25z m-190 0 c-3 -8 -6 -5 -6 6 -1 11 2 17 5 13 3 -3 4
-12 1 -19z m239 -24 c-3 -15 -8 -29 -12 -33 -4 -3 -4 2 -1 12 7 19 -9 24 -16
5 -3 -7 -6 -1 -6 15 -1 21 4 27 19 27 17 0 19 -5 16 -26z m-46 -31 c0 -9 3
-13 7 -10 9 10 33 -13 33 -32 0 -14 -2 -14 -10 -1 -9 13 -10 13 -11 0 0 -10
-3 -8 -9 5 -7 17 -9 17 -9 3 -2 -37 -21 -16 -21 23 0 24 4 38 10 34 6 -3 10
-13 10 -22z m-189 -20 c-12 -20 -14 -14 -5 12 4 9 9 14 11 11 3 -2 0 -13 -6
-23z m144 17 c8 -13 -35 -13 -55 0 -11 7 -7 10 17 10 17 0 35 -4 38 -10z m-15
-34 c-1 -5 4 -13 12 -18 10 -8 10 -9 -2 -5 -8 2 -14 10 -12 16 1 6 -4 11 -12
11 -8 0 -18 4 -21 10 -4 6 2 7 15 2 12 -4 21 -12 20 -16z m-35 -91 c75 -10
196 -46 232 -71 l33 -22 -28 -10 c-15 -6 -66 -13 -113 -15 -94 -4 -111 -12
-123 -60 -5 -22 -4 -27 6 -21 10 6 9 3 -1 -9 -7 -9 -10 -17 -7 -17 4 0 0 -10
-8 -22 -9 -12 -16 -30 -16 -40 0 -10 -3 -18 -7 -18 -16 0 -7 -72 9 -81 10 -5
15 -16 12 -24 -3 -7 -1 -22 6 -32 7 -11 9 -12 7 -3 -2 8 3 24 12 35 15 19 15
19 -4 5 -18 -14 -19 -14 -7 2 12 15 17 15 47 2 46 -19 106 -19 99 0 -3 8 0 17
6 21 14 9 91 19 148 20 47 0 50 4 22 30 -11 10 -17 21 -14 26 2 5 -14 21 -38
36 -36 24 -39 28 -20 31 11 2 30 -2 41 -8 17 -8 20 -8 15 4 -3 9 -10 14 -16
13 -9 -2 -75 78 -77 93 -1 3 9 11 20 19 19 11 21 11 16 -3 -9 -22 20 -33 46
-17 18 12 25 8 68 -41 27 -29 48 -56 49 -60 1 -24 43 -117 51 -112 20 12 49
-87 58 -204 5 -64 7 -120 5 -123 -2 -4 2 -12 10 -18 11 -9 15 -9 19 1 4 9 6 9
6 1 1 -6 -11 -21 -25 -32 -15 -12 -22 -21 -16 -21 7 0 9 -11 6 -30 -4 -17 -1
-36 5 -44 9 -11 5 -15 -19 -20 -30 -5 -88 -61 -83 -78 2 -4 -4 -8 -12 -8 -7 0
-19 -8 -24 -17 -10 -17 -12 -15 -15 17 0 8 -8 15 -16 15 -9 0 -14 -7 -12 -19
3 -16 1 -18 -11 -8 -11 10 -17 9 -26 -1 -6 -8 -8 -17 -4 -20 3 -4 1 -7 -5 -7
-5 0 -13 6 -15 13 -3 6 -6 2 -6 -11 -1 -13 3 -20 9 -17 6 3 10 2 10 -4 0 -11
-56 -8 -67 3 -4 3 -2 6 4 6 5 0 10 37 12 86 1 48 4 92 8 97 3 6 1 7 -5 3 -7
-4 -12 -1 -12 8 0 9 0 18 0 21 0 8 -36 41 -56 54 -11 6 -14 11 -7 11 7 0 10 7
6 16 -4 12 -8 13 -14 3 -6 -10 -11 -10 -26 2 -16 12 -17 12 -6 -2 7 -9 10 -18
7 -22 -3 -3 -1 -14 5 -26 8 -14 8 -22 0 -27 -12 -7 -60 15 -72 33 -14 22 -28
14 -23 -12 3 -13 8 -30 12 -36 11 -18 14 -79 4 -79 -5 0 -13 7 -18 15 -4 9
-23 23 -42 33 -39 20 -46 34 -28 54 14 15 38 55 38 63 0 9 -88 5 -114 -5 -14
-5 -26 -6 -26 -1 0 4 -13 6 -29 3 -16 -2 -48 5 -72 16 -32 15 -46 17 -51 9 -6
-9 -8 -9 -8 0 0 14 47 63 60 63 13 0 31 36 22 45 -4 5 0 6 8 3 12 -5 16 5 19
51 1 31 4 72 5 91 1 19 10 47 20 62 13 20 14 28 5 34 -7 4 -9 3 -6 -2 3 -6 1
-16 -4 -24 -7 -11 -9 -7 -7 15 2 21 -3 35 -20 48 -12 10 -20 23 -16 28 3 6 0
16 -6 24 -7 8 -10 22 -6 30 3 9 2 13 -4 10 -6 -3 -10 -2 -10 3 0 5 -13 15 -29
21 -30 13 -84 10 -138 -7 -17 -6 -34 -8 -37 -4 -3 3 -6 -1 -6 -8 0 -11 -3 -11
-12 -2 -9 9 -5 17 18 37 16 14 32 25 37 25 4 0 7 7 7 15 0 18 57 55 84 55 11
0 27 7 35 14 17 15 164 46 191 40 8 -1 38 -6 65 -9z m-725 -195 c12 -23 12
-24 -3 -11 -10 7 -17 20 -17 29 0 18 3 16 20 -18z m1257 -102 c-3 -8 -6 -5 -6
6 -1 11 2 17 5 13 3 -3 4 -12 1 -19z m-994 6 c3 -4 0 -13 -8 -20 -7 -8 -11
-23 -8 -34 6 -22 11 -24 33 -10 10 6 22 5 35 -4 25 -16 93 -27 100 -16 3 4 16
10 30 12 13 3 22 1 19 -3 -3 -5 -14 -9 -26 -9 -14 0 -18 -5 -14 -16 4 -12 2
-15 -9 -10 -8 3 -25 1 -37 -5 -21 -9 -21 -9 4 -4 15 3 30 1 33 -5 3 -5 1 -10
-4 -10 -6 0 -11 -5 -11 -10 0 -10 53 -5 71 6 4 2 10 0 13 -5 3 -5 -1 -12 -10
-15 -12 -4 -14 -13 -10 -31 4 -14 3 -25 -1 -24 -24 4 -43 -3 -43 -15 0 -8 -6
-16 -12 -19 -10 -3 -10 -8 1 -18 8 -8 11 -9 7 -2 -8 15 10 27 19 13 5 -8 11
-7 21 1 20 17 17 -1 -3 -20 -25 -23 -45 -60 -38 -71 3 -5 0 -12 -6 -15 -7 -5
-8 -21 -4 -42 4 -24 3 -33 -4 -28 -6 3 -11 1 -11 -4 0 -6 -6 -11 -14 -11 -9 0
-13 7 -11 20 2 11 0 22 -5 25 -11 7 -49 -8 -49 -20 -1 -5 -7 -10 -13 -10 -7
-1 -12 -7 -10 -14 2 -8 -5 -22 -15 -33 -13 -15 -15 -23 -6 -37 11 -18 4 -135
-10 -158 -8 -12 -22 -4 -62 35 -8 6 -18 12 -23 12 -21 0 -39 86 -56 258 -9 99
-9 138 2 205 18 106 30 131 65 135 15 2 27 7 27 12 0 7 13 13 41 19 3 0 8 -2
12 -5z m505 0 c19 -4 21 -8 12 -24 -8 -15 -6 -22 12 -34 22 -16 22 -16 -9 -16
-17 0 -40 -3 -50 -6 -15 -5 -15 -4 -3 5 8 6 10 11 4 11 -6 0 -16 11 -22 25 -8
17 -8 25 -1 25 6 0 8 4 5 8 -6 10 19 13 52 6z m88 -10 c-3 -9 -6 -20 -6 -25 0
-14 -28 -11 -33 4 -2 6 3 17 12 24 22 17 34 16 27 -3z m-388 -16 c18 -18 15
-27 -8 -21 -11 3 -20 12 -20 19 0 17 12 18 28 2z m383 -66 c-7 -2 -18 1 -23 6
-8 8 -4 9 13 5 13 -4 18 -8 10 -11z m463 -314 c-4 -13 -7 -29 -6 -35 2 -7 -2
-13 -8 -13 -5 0 -10 4 -10 9 0 16 22 72 27 67 3 -2 1 -15 -3 -28z m-642 -183
c54 -1 100 -4 103 -7 10 -10 -8 -39 -21 -34 -7 3 -16 0 -20 -5 -3 -6 -17 -9
-30 -6 -29 5 -32 -8 -4 -16 11 -3 20 -12 20 -21 0 -25 53 -20 96 9 41 28 43
28 63 16 22 -14 -3 -85 -43 -127 -30 -31 -34 -32 -52 -19 -13 10 -15 14 -5 15
11 0 11 3 1 15 -6 8 -9 19 -5 25 3 5 0 11 -7 11 -7 1 -29 3 -48 5 -19 2 -78 6
-130 10 -52 3 -103 11 -113 16 -12 6 -23 6 -31 -1 -21 -17 -52 -9 -52 13 1 12
-7 22 -16 24 -13 2 -18 -3 -18 -18 0 -12 -4 -18 -10 -15 -21 13 -8 34 26 44
27 8 42 7 58 -4 28 -18 86 -29 86 -17 0 5 9 12 20 15 25 6 27 27 3 27 -22 1
-53 23 -53 39 0 7 5 9 10 6 6 -3 10 -1 10 5 0 8 11 9 33 4 17 -4 76 -8 129 -9z
m529 -102 c13 -16 12 -17 -3 -4 -10 7 -18 15 -18 17 0 8 8 3 21 -13z m-207
-54 c-3 -5 -11 -9 -17 -9 -8 0 -8 3 1 9 11 7 11 9 -2 14 -9 4 -16 12 -16 18 0
7 8 5 20 -6 11 -10 17 -22 14 -26z m486 -24 c0 -25 -15 -24 -16 1 -1 13 2 21
7 18 5 -3 9 -11 9 -19z m-520 -30 c0 -21 42 -67 56 -61 8 3 11 0 8 -9 -3 -8
-13 -11 -22 -8 -26 9 -42 24 -37 33 3 5 -2 16 -11 24 -8 9 -12 16 -8 16 3 0 1
7 -6 15 -11 13 -10 14 4 9 9 -3 16 -12 16 -19z m53 -9 c4 -10 1 -13 -9 -9 -7
3 -14 9 -14 14 0 14 17 10 23 -5z m-265 -15 c5 -1 -26 -31 -32 -31 -3 0 -6 9
-6 19 0 17 7 19 38 12z m115 -34 c4 3 7 -1 7 -11 0 -13 -4 -15 -19 -7 -10 6
-21 7 -25 4 -3 -3 -6 4 -6 17 0 22 1 22 18 7 10 -10 22 -14 25 -10z m-42 -73
c-6 -13 -14 -24 -18 -23 -30 5 -35 -2 -18 -21 10 -11 15 -23 12 -27 -4 -3 -7
-1 -7 6 0 7 -8 12 -17 11 -31 -3 -60 11 -70 33 l-10 21 -5 -22 c-4 -12 -2 -22
2 -22 5 0 8 -9 7 -20 -2 -29 -10 -25 -47 26 -24 34 -29 49 -21 57 8 8 11 7 11
-3 0 -13 2 -13 10 0 8 13 10 13 10 -2 0 -9 5 -20 11 -24 6 -3 10 1 9 12 -5 42
-1 47 30 41 17 -4 30 -2 30 3 0 14 28 12 32 -2 3 -8 9 -7 18 4 13 14 16 13 29
-4 10 -15 11 -25 2 -44z m304 45 c11 -17 -1 -21 -15 -4 -8 9 -8 15 -2 15 6 0
14 -5 17 -11z m-205 -19 c8 -5 12 -11 9 -14 -3 -3 -14 1 -25 9 -21 16 -8 20
16 5z m-307 -45 c5 -28 4 -34 -3 -20 -8 19 -14 73 -6 64 2 -2 6 -22 9 -44z
m274 13 c-3 -8 -6 -5 -6 6 -1 11 2 17 5 13 3 -3 4 -12 1 -19z m513 -25 c0 -5
-10 -19 -21 -33 -11 -14 -18 -19 -14 -12 4 8 -1 20 -11 28 -18 14 -17 15 9 9
15 -3 27 -1 27 5 0 5 2 10 5 10 3 0 5 -3 5 -7z m-56 -32 c3 -5 -1 -11 -9 -14
-9 -4 -12 -1 -8 9 6 16 10 17 17 5z m-40 -26 c-7 -16 -24 -21 -24 -6 0 8 7 13
27 20 1 1 0 -6 -3 -14z m93 -10 c0 -8 -4 -15 -9 -15 -10 0 -11 14 -1 23 9 10
10 9 10 -8z m-52 -35 c-3 -5 -12 -10 -18 -10 -7 0 -6 4 3 10 19 12 23 12 15 0z
m245 0 c0 -5 -5 -10 -11 -10 -5 0 -7 5 -4 10 3 6 8 10 11 10 2 0 4 -4 4 -10z
m-455 -87 c17 -13 17 -15 2 -9 -10 3 -16 2 -13 -3 6 -9 -26 -74 -73 -153 -27
-44 -38 -50 -18 -10 7 15 13 34 12 42 0 8 7 21 17 28 10 7 18 20 18 28 0 8 4
14 9 14 4 0 7 14 5 31 -6 50 6 60 41 32z m-250 -43 c-3 -5 -14 -10 -23 -9 -14
0 -13 2 3 9 27 11 27 11 20 0z m705 6 c0 -3 -4 -8 -10 -11 -5 -3 -10 -1 -10 4
0 6 5 11 10 11 6 0 10 -2 10 -4z m-1802 -34 c19 -25 14 -42 -12 -42 -18 0 -25
6 -28 23 -2 14 -10 22 -22 22 -11 0 -21 5 -23 12 -6 18 69 4 85 -15z m1792
-32 c-20 -13 -33 -13 -25 0 3 6 14 10 23 10 15 0 15 -2 2 -10z m-236 -36 c3
-8 2 -12 -4 -9 -6 3 -10 10 -10 16 0 14 7 11 14 -7z m-54 -11 c0 -7 -7 -13
-16 -13 -8 0 -13 4 -9 9 3 5 -3 12 -12 14 -10 3 -6 4 10 4 15 -1 27 -7 27 -14z
m-35 -33 c-27 -12 -43 -12 -25 0 8 5 22 9 30 9 10 0 8 -3 -5 -9z m-15 -36 c0
-17 -22 -14 -28 4 -2 7 3 12 12 12 9 0 16 -7 16 -16z m147 -76 c-3 -8 -6 -5
-6 6 -1 11 2 17 5 13 3 -3 4 -12 1 -19z m489 -75 c14 -19 19 -65 7 -76 -9 -9
-41 65 -35 81 6 16 12 15 28 -5z m-467 -43 l-1 -25 -8 25 c-4 14 -8 32 -9 40
-1 13 0 13 9 0 5 -8 9 -26 9 -40z m346 -20 c15 -6 23 -15 20 -21 -4 -6 -13 -8
-21 -5 -17 6 -19 -21 -4 -59 9 -23 13 -25 26 -14 12 9 12 14 2 20 -7 4 -9 11
-6 15 4 3 20 -4 37 -17 28 -23 29 -27 24 -79 -6 -57 -13 -74 -20 -52 -6 16
-44 52 -55 52 -5 0 -4 -9 2 -20 16 -30 7 -24 -20 13 -14 18 -16 26 -7 18 26
-20 22 7 -9 75 -35 76 -26 96 31 74z m-325 -43 c0 -5 -4 -5 -10 -2 -5 3 -10
14 -10 23 0 15 2 15 10 2 5 -8 10 -19 10 -23z m397 -3 c-3 -3 -12 -4 -19 -1
-8 3 -5 6 6 6 11 1 17 -2 13 -5z m-21 -191 c-7 -7 -26 7 -26 19 0 6 6 6 15 -2
9 -7 13 -15 11 -17z m-911 -172 c3 -5 1 -12 -4 -15 -5 -3 -11 1 -15 9 -6 16 9
21 19 6z m756 -152 c-14 -24 -14 -32 2 -23 6 4 3 -3 -8 -16 -11 -13 -14 -20
-7 -16 12 7 12 4 1 -15 -7 -13 -12 -28 -10 -34 1 -5 -3 -4 -10 2 -9 9 -16 10
-26 2 -8 -7 -24 -8 -40 -3 -16 4 -32 6 -37 5 -5 -1 -6 7 -3 18 3 11 -1 25 -9
32 -18 15 -7 32 16 26 11 -3 21 1 24 9 3 8 13 14 21 14 9 0 14 4 11 9 -4 5 1
8 11 7 9 -2 25 6 36 17 19 19 20 19 30 2 7 -13 6 -24 -2 -36z m-153 -51 c5 -8
6 -22 1 -33 -4 -11 -8 -14 -8 -6 -1 9 -9 11 -26 7 -30 -8 -35 17 -7 33 23 14
28 13 40 -1z m-68 -39 c0 -3 -9 -9 -20 -12 -19 -5 -27 3 -15 15 8 7 35 6 35
-3z m80 -28 c0 -11 -39 -7 -44 5 -3 7 5 9 20 6 13 -2 24 -7 24 -11z"/>
<path d="M1566 2805 c4 -8 10 -12 15 -9 14 8 10 24 -6 24 -9 0 -12 -6 -9 -15z"/>
<path d="M1610 2518 c0 -9 7 -22 17 -29 15 -13 15 -12 3 11 -17 34 -20 36 -20
18z"/>
<path d="M1645 2470 c-3 -5 -1 -10 4 -10 6 0 11 5 11 10 0 6 -2 10 -4 10 -3 0
-8 -4 -11 -10z"/>
<path d="M2085 2150 c4 -6 11 -8 16 -5 14 9 11 15 -7 15 -8 0 -12 -5 -9 -10z"/>
<path d="M1300 2490 c0 -5 5 -10 11 -10 5 0 7 5 4 10 -3 6 -8 10 -11 10 -2 0
-4 -4 -4 -10z"/>
<path d="M1488 2033 c7 -3 16 -2 19 1 4 3 -2 6 -13 5 -11 0 -14 -3 -6 -6z"/>
<path d="M1405 2000 c-4 -6 7 -10 27 -10 25 0 29 3 18 10 -19 13 -37 13 -45 0z"/>
<path d="M2410 490 c0 -5 5 -10 11 -10 5 0 7 5 4 10 -3 6 -8 10 -11 10 -2 0
-4 -4 -4 -10z"/>
<path d="M2438 466 c-19 -14 -14 -26 11 -26 13 0 13 2 2 9 -11 7 -10 11 5 20
11 6 15 10 9 10 -5 0 -18 -6 -27 -13z"/>
<path d="M2480 464 c0 -8 5 -12 10 -9 6 4 8 11 5 16 -9 14 -15 11 -15 -7z"/>
<path d="M1610 3591 c0 -6 4 -13 10 -16 6 -3 7 1 4 9 -7 18 -14 21 -14 7z"/>
<path d="M1724 3555 c22 -86 36 -144 39 -165 9 -55 20 -91 30 -97 6 -4 7 8 3
33 -5 28 -4 35 3 24 6 -8 11 -11 11 -6 0 5 -7 17 -16 27 -8 9 -22 46 -29 82
-8 36 -21 78 -30 94 -10 17 -14 20 -11 8z"/>
<path d="M1808 3444 c3 -27 7 -32 17 -24 23 19 47 -17 43 -66 -1 -23 0 -40 4
-38 3 2 10 -10 13 -28 8 -36 20 -48 49 -48 15 0 17 5 12 33 -4 17 -9 47 -13
65 -3 18 -9 35 -14 38 -5 3 -6 -2 -3 -10 3 -9 1 -16 -5 -16 -6 0 -11 -5 -11
-11 0 -5 4 -8 9 -4 9 5 32 -74 25 -84 -14 -18 -54 85 -54 140 0 28 -35 63 -52
53 -4 -3 -8 2 -8 10 0 8 -4 17 -8 20 -4 2 -6 -11 -4 -30z"/>
<path d="M1896 3437 c3 -10 9 -15 12 -12 3 3 0 11 -7 18 -10 9 -11 8 -5 -6z"/>
<path d="M1815 3391 c3 -5 8 -31 11 -57 3 -27 8 -52 10 -56 8 -12 34 -10 34 3
0 5 -5 7 -11 3 -8 -5 -10 2 -7 23 2 17 -2 35 -9 42 -7 6 -13 21 -13 31 0 11
-5 20 -11 20 -5 0 -8 -4 -4 -9z"/>
<path d="M1940 3366 c0 -2 7 -7 16 -10 8 -3 12 -2 9 4 -6 10 -25 14 -25 6z"/>
<path d="M1972 3315 c0 -16 2 -22 5 -12 2 9 2 23 0 30 -3 6 -5 -1 -5 -18z"/>
<path d="M1981 3239 c-1 -24 4 -39 14 -43 13 -4 14 -2 5 14 -8 15 -8 20 2 20
9 0 10 3 2 8 -6 4 -14 14 -17 22 -3 8 -6 -1 -6 -21z"/>
<path d="M2040 3246 c0 -2 7 -7 16 -10 8 -3 12 -2 9 4 -6 10 -25 14 -25 6z"/>
<path d="M2019 3204 c-4 -24 0 -37 17 -53 26 -25 34 -26 34 -6 0 8 -5 14 -11
13 -6 -2 -17 15 -23 37 l-12 40 -5 -31z"/>
<path d="M1853 3171 c3 -11 1 -21 -3 -23 -4 -2 -2 -9 6 -16 11 -10 14 -10 14
2 0 8 3 21 6 29 3 8 -2 17 -12 21 -13 5 -15 2 -11 -13z"/>
<path d="M1900 3181 c0 -5 5 -13 10 -16 6 -3 10 -2 10 4 0 5 -4 13 -10 16 -5
3 -10 2 -10 -4z"/>
<path d="M1940 3179 c0 -5 5 -7 10 -4 6 3 10 8 10 11 0 2 -4 4 -10 4 -5 0 -10
-5 -10 -11z"/>
<path d="M2090 3164 c0 -8 5 -12 10 -9 6 4 8 11 5 16 -9 14 -15 11 -15 -7z"/>
<path d="M1976 3159 c3 -6 0 -15 -7 -20 -9 -6 -4 -7 15 -3 24 6 28 4 23 -9 -3
-9 -1 -19 5 -23 6 -4 8 -3 4 4 -3 5 0 13 6 16 9 3 6 11 -11 25 -25 22 -47 28
-35 10z"/>
<path d="M1770 3150 c0 -5 6 -10 14 -10 8 0 18 5 21 10 3 6 -3 10 -14 10 -12
0 -21 -4 -21 -10z"/>
<path d="M1800 3131 c0 -5 7 -12 16 -15 8 -3 13 -10 10 -15 -4 -5 4 -7 16 -3
21 5 22 4 8 -12 -18 -22 -23 -53 -10 -61 11 -7 15 3 24 52 4 27 2 32 -17 35
-12 2 -21 9 -19 16 1 6 -5 12 -13 12 -8 0 -15 -4 -15 -9z"/>
<path d="M1952 3098 c2 -6 10 -14 18 -16 7 -3 10 0 6 6 -3 6 0 13 6 15 7 3 3
6 -10 6 -14 1 -22 -4 -20 -11z"/>
<path d="M1765 3081 c-3 -6 1 -11 9 -11 8 0 17 -8 20 -17 3 -11 4 -8 3 6 -2
26 -21 39 -32 22z"/>
<path d="M2077 3064 c-3 -4 1 -13 9 -21 8 -8 11 -20 7 -26 -4 -6 0 -8 10 -4
10 4 20 0 26 -11 9 -15 10 -15 11 3 0 26 -50 72 -63 59z"/>
<path d="M1900 3056 c0 -2 7 -6 15 -10 8 -3 15 -1 15 4 0 6 -7 10 -15 10 -8 0
-15 -2 -15 -4z"/>
<path d="M1940 3041 c0 -5 5 -13 10 -16 6 -3 10 -2 10 4 0 5 -4 13 -10 16 -5
3 -10 2 -10 -4z"/>
<path d="M1986 3035 c4 -8 8 -15 10 -15 2 0 4 7 4 15 0 8 -4 15 -10 15 -5 0
-7 -7 -4 -15z"/>
<path d="M2185 3010 c-3 -5 1 -10 9 -10 9 0 16 5 16 10 0 6 -4 10 -9 10 -6 0
-13 -4 -16 -10z"/>
<path d="M1935 3000 c3 -5 8 -10 11 -10 2 0 4 5 4 10 0 6 -5 10 -11 10 -5 0
-7 -4 -4 -10z"/>
<path d="M2211 2991 c-20 -13 -4 -31 29 -31 30 0 47 14 30 25 -5 3 -10 2 -10
-4 0 -5 -9 -9 -19 -8 -11 0 -17 6 -14 14 6 15 3 16 -16 4z"/>
<path d="M1982 2960 c11 -17 48 -16 48 1 0 9 -2 10 -37 14 -18 2 -20 -1 -11
-15z"/>
<path d="M2068 2938 c-3 -16 0 -25 9 -25 15 0 17 16 4 35 -6 10 -10 7 -13 -10z"/>
<path d="M2234 2935 c-7 -18 4 -37 18 -29 6 4 6 -2 -1 -15 -8 -14 -8 -21 -1
-21 6 0 15 -11 20 -25 6 -15 17 -25 27 -24 15 1 15 2 2 6 -11 3 -15 12 -11 28
2 15 0 25 -7 25 -6 0 -11 13 -11 29 0 31 -27 51 -36 26z"/>
<path d="M2175 2921 c2 -9 4 -26 4 -39 1 -30 28 -40 45 -16 12 15 11 22 -3 40
-20 28 -50 38 -46 15z"/>
<path d="M2095 2900 c-16 -18 -16 -20 -2 -20 10 0 17 6 17 14 0 8 6 17 13 19
7 3 7 6 1 6 -6 1 -19 -8 -29 -19z"/>
<path d="M2186 2832 c-2 -4 -1 -14 5 -22 7 -12 9 -10 9 8 0 23 -5 28 -14 14z"/>
<path d="M2247 2786 c4 -20 3 -27 -6 -22 -20 13 -12 -14 13 -40 l23 -26 7 27
c8 33 -1 65 -19 65 -7 0 -16 6 -19 13 -3 6 -2 -1 1 -17z"/>
<path d="M2230 2690 c14 -10 27 -17 29 -14 7 7 -17 28 -36 30 -14 2 -12 -2 7
-16z"/>
<path d="M2314 2688 c-5 -7 -9 -29 -9 -48 0 -26 -4 -34 -15 -32 -12 3 -13 1
-2 -9 14 -15 16 -33 2 -24 -6 4 -9 -6 -7 -24 5 -42 15 -49 23 -17 3 14 10 26
15 26 15 0 30 49 23 76 -3 13 -13 24 -21 24 -13 0 -13 3 -3 15 7 9 10 18 7 21
-3 3 -9 -1 -13 -8z"/>
<path d="M2217 2673 c-4 -3 -7 -13 -7 -22 0 -11 3 -13 8 -4 6 10 14 9 35 -2
25 -13 27 -13 26 8 0 12 -3 17 -5 10 -5 -12 -34 -6 -45 9 -3 5 -8 5 -12 1z"/>
<path d="M2347 2564 c-4 -4 -7 -22 -7 -41 0 -18 -5 -33 -11 -33 -6 0 -8 9 -4
23 5 18 4 19 -5 5 -11 -17 -4 -48 11 -48 4 0 6 -7 2 -16 -5 -15 -3 -15 20 1
24 15 26 22 21 59 -7 44 -16 61 -27 50z"/>
<path d="M2278 2478 c12 -6 22 -16 22 -23 0 -7 9 -20 20 -30 11 -10 20 -13 20
-7 0 7 -4 12 -8 12 -4 0 -13 14 -19 30 -8 22 -18 30 -35 29 l-23 0 23 -11z"/>
<path d="M2310 2396 c0 -9 0 -19 -1 -23 0 -4 4 -9 10 -11 14 -5 14 35 1 43 -5
3 -10 -1 -10 -9z"/>
<path d="M2110 2070 c-18 -18 -14 -60 5 -60 11 0 13 9 10 33 -5 29 -5 30 6 10
7 -13 18 -23 26 -23 8 0 12 4 9 8 -3 5 9 6 26 4 19 -3 28 -1 25 5 -4 6 -24 13
-46 17 -22 3 -41 10 -43 14 -1 4 -10 1 -18 -8z"/>
<path d="M2065 2060 c3 -5 8 -10 11 -10 2 0 4 5 4 10 0 6 -5 10 -11 10 -5 0
-7 -4 -4 -10z"/>
<path d="M2782 1598 c-9 -93 0 -148 24 -148 19 0 18 -26 -1 -34 -17 -6 -22
-86 -5 -86 6 0 11 6 12 13 0 6 2 17 3 22 2 6 3 14 4 18 0 5 9 1 18 -9 16 -15
16 -17 -2 -30 -15 -11 -16 -17 -6 -27 10 -10 15 -8 27 8 15 19 14 53 -3 114
-5 18 -3 22 7 16 10 -6 12 -2 7 16 -4 13 -7 33 -7 43 0 11 -3 16 -7 12 -4 -3
-16 12 -27 36 -21 42 -42 59 -44 36z m65 -110 c-3 -8 -6 -5 -6 6 -1 11 2 17 5
13 3 -3 4 -12 1 -19z"/>
<path d="M2841 1584 c0 -11 3 -14 6 -6 3 7 2 16 -1 19 -3 4 -6 -2 -5 -13z"/>
<path d="M1885 1580 c-3 -5 1 -10 9 -10 9 0 16 5 16 10 0 6 -4 10 -9 10 -6 0
-13 -4 -16 -10z"/>
<path d="M2734 1412 c-18 -13 -14 -39 11 -62 14 -13 28 -20 32 -17 10 10 -31
87 -43 79z"/>
<path d="M2670 1400 c-9 -6 -10 -10 -3 -10 6 0 18 -3 27 -6 11 -4 16 -1 16 10
0 18 -17 21 -40 6z"/>
<path d="M3483 1404 c4 -4 -5 -20 -18 -36 l-25 -30 30 -28 c16 -15 35 -41 41
-56 16 -37 27 -144 16 -144 -4 0 -6 -4 -3 -8 10 -17 -26 -68 -67 -93 -32 -20
-50 -26 -76 -22 -42 7 -35 -8 20 -43 41 -25 117 -116 157 -185 12 -22 22 -41
22 -44 0 -2 -20 15 -43 38 -28 26 -54 43 -71 43 -15 1 -36 10 -47 20 -10 9
-19 14 -19 11 0 -13 92 -147 136 -198 25 -30 52 -66 60 -81 12 -23 12 -27 -2
-32 -10 -4 -13 -2 -8 6 5 7 -1 9 -19 6 -15 -3 -24 -2 -22 3 3 4 -1 10 -7 12
-10 4 -10 6 0 6 11 1 11 4 0 16 -31 34 -38 45 -38 58 0 8 -7 20 -15 27 -8 7
-15 19 -15 27 0 8 -4 12 -9 9 -4 -3 -17 10 -27 29 -10 19 -25 35 -33 35 -8 0
-11 3 -8 6 4 4 -2 19 -13 34 -11 16 -20 33 -20 39 0 6 -9 11 -19 11 -11 0 -23
5 -26 10 -3 6 -14 10 -23 9 -12 0 -11 -3 6 -9 12 -5 22 -16 22 -25 0 -12 -4
-13 -19 -6 -10 6 -21 8 -24 5 -3 -3 -8 4 -12 15 -3 12 -11 19 -16 16 -5 -4 -9
1 -9 10 0 8 -7 18 -15 21 -8 4 -15 12 -15 19 0 8 -10 17 -22 20 -28 9 -79 55
-72 66 2 5 12 6 22 3 14 -5 13 -2 -3 11 -32 26 -113 64 -121 57 -4 -4 -5 -2
-1 3 3 6 2 17 -2 24 -5 8 -11 -8 -15 -41 -14 -114 -38 -254 -47 -270 -5 -10
-9 -33 -9 -51 0 -26 6 -36 25 -45 14 -7 27 -7 30 -2 3 5 12 7 20 3 8 -3 15 0
15 6 0 6 8 11 18 11 10 0 22 3 25 7 7 6 -31 76 -45 81 -4 2 -8 8 -8 14 0 5 -9
23 -21 39 -11 16 -17 29 -13 29 12 0 64 -62 64 -76 0 -7 14 -26 31 -42 22 -21
35 -46 45 -88 25 -108 26 -106 -65 -103 l-80 3 -10 41 c-6 22 -15 47 -21 55
-8 12 -10 10 -11 -10 -2 -26 -3 -42 -13 -130 -4 -30 -9 -75 -12 -100 -4 -43
-6 -57 -18 -145 -3 -22 -8 -62 -11 -90 -4 -27 -11 -77 -16 -110 -5 -33 -9 -63
-9 -67 0 -5 212 -8 470 -8 259 0 470 3 470 7 0 4 -12 42 -27 85 l-27 78 34 30
c21 17 42 27 52 24 13 -4 21 3 28 21 12 32 12 36 3 33 -11 -2 -84 34 -105 52
-10 8 -18 20 -18 26 0 7 -6 15 -12 17 -10 4 -10 6 -1 6 7 1 10 8 6 17 -4 10 1
20 11 26 9 5 14 14 10 19 -7 13 34 59 53 59 19 0 16 18 -8 52 -20 28 -22 28
-40 12 -10 -9 -19 -12 -19 -6 0 6 -17 12 -37 14 -35 3 -38 6 -41 37 -4 43 4
75 24 95 9 9 11 16 4 16 -6 0 -8 5 -3 12 10 18 3 71 -11 80 -6 4 -7 8 -2 8 6
0 1 7 -10 15 -10 8 -15 15 -10 15 5 0 2 8 -6 18 -18 21 -41 85 -28 77 6 -4 10
-1 10 4 0 6 -7 11 -15 11 -18 0 -18 5 -4 31 6 11 12 29 14 40 2 12 7 29 10 40
4 12 2 19 -7 19 -8 0 -6 4 5 11 9 5 17 15 17 22 0 7 -4 6 -10 -3 -13 -20 -13
-4 0 21 7 13 7 19 0 19 -5 0 -10 5 -10 11 0 7 10 9 28 5 l27 -6 -25 14 c-19
11 -25 23 -25 48 0 24 7 38 25 51 24 18 24 19 2 14 -12 -3 -20 -1 -16 4 3 5
-1 9 -8 9 -9 0 -9 3 2 10 12 8 11 10 -5 10 -12 0 -40 18 -64 40 -27 25 -52 40
-69 40 -14 0 -22 -3 -19 -6z m-393 -399 c7 -9 10 -18 6 -22 -3 -3 -6 -1 -6 5
0 7 -7 12 -15 12 -8 0 -15 5 -15 10 0 15 16 12 30 -5z m-40 -35 c0 -5 -4 -10
-10 -10 -5 0 -10 5 -10 10 0 6 5 10 10 10 6 0 10 -4 10 -10z m88 -44 c15 -8
41 -29 57 -47 17 -18 23 -28 15 -22 -13 10 -34 11 -57 4 -7 -2 -18 5 -16 10 1
4 -5 6 -13 5 -11 -1 -17 9 -19 32 -3 37 -3 37 33 18z m117 -106 c10 -11 16
-20 13 -20 -3 0 -15 9 -28 20 -13 11 -19 20 -13 20 5 0 18 -9 28 -20z m82 -18
c-21 -23 -22 -39 -3 -23 12 10 13 9 9 -7 -2 -11 0 -29 6 -41 9 -16 9 -21 -1
-21 -9 0 -9 -3 1 -12 11 -10 14 -10 18 0 3 6 10 12 16 12 8 0 7 -4 -1 -12 -7
-7 -12 -20 -12 -29 0 -10 -4 -21 -10 -24 -6 -3 -7 1 -4 9 8 21 -20 47 -43 40
-16 -5 -16 -4 2 11 20 17 20 17 -2 11 -25 -8 -36 4 -22 24 6 10 9 11 9 3 0 -7
5 -13 11 -13 7 0 9 10 5 26 -6 24 14 64 32 64 3 0 -2 -8 -11 -18z m-57 -43 c0
-5 -4 -9 -10 -9 -5 0 -10 7 -10 16 0 8 5 12 10 9 6 -3 10 -10 10 -16z m225
-199 c3 -6 -1 -7 -9 -4 -18 7 -21 14 -7 14 6 0 13 -4 16 -10z m-351 -83 l6
-48 -63 3 c-59 3 -62 4 -65 30 -4 31 16 45 66 44 20 -1 31 3 28 11 -6 14 5 26
15 16 3 -5 9 -30 13 -56z m-51 46 c-7 -2 -21 -2 -30 0 -10 3 -4 5 12 5 17 0
24 -2 18 -5z m747 -285 c0 -4 -4 -8 -9 -8 -6 0 -12 4 -15 8 -3 5 1 9 9 9 8 0
15 -4 15 -9z"/>
<path d="M3777 1327 c-4 -11 -4 -23 -1 -29 4 -6 -2 -8 -17 -3 -15 4 -19 3 -12
-2 7 -5 14 -19 16 -31 9 -58 31 -14 25 49 -2 26 -5 30 -11 16z"/>
<path d="M2569 1285 c-19 -32 -17 -62 6 -90 21 -26 25 -27 31 -11 4 10 2 21
-3 25 -6 3 -14 24 -19 46 -6 22 -12 35 -15 30z"/>
<path d="M3660 1140 c0 -5 5 -10 11 -10 5 0 7 5 4 10 -3 6 -8 10 -11 10 -2 0
-4 -4 -4 -10z"/>
<path d="M3164 981 c7 -11 46 -35 46 -28 0 3 -12 12 -26 22 -15 9 -23 12 -20
6z"/>
<path d="M3220 932 c0 -5 10 -17 21 -28 22 -19 22 -19 10 3 -12 24 -31 39 -31
25z"/>
<path d="M3885 260 c3 -5 8 -10 11 -10 2 0 4 5 4 10 0 6 -5 10 -11 10 -5 0 -7
-4 -4 -10z"/>
</g>
</svg>
